<?xml version="1.0" encoding="utf-8"?>
<!-- Generator: Adobe Illustrator 23.0.0, SVG Export Plug-In . SVG Version: 6.00 Build 0)  -->
<svg version="1.1" id="Layer_1" xmlns="http://www.w3.org/2000/svg" xmlns:xlink="http://www.w3.org/1999/xlink" x="0px" y="0px"
	 viewBox="0 0 575 575" style="enable-background:new 0 0 575 575;" xml:space="preserve">
<style type="text/css">
	.st0{fill-rule:evenodd;clip-rule:evenodd;fill:#EA8331;}
	.st1{fill:none;stroke:#EA8331;stroke-width:4;stroke-miterlimit:10;}
	.st2{fill:#01032C;}
	.st3{enable-background:new    ;}
	.st4{fill:#FFFFFF;}
	.st5{clip-path:url(#SVGID_3_);fill:#01032C;}
	.st6{clip-path:url(#SVGID_5_);fill:#01032C;}
	.st7{fill:none;stroke:#01032C;stroke-width:10;stroke-miterlimit:10;}
</style>
<g>
	<g>
		<circle class="st0" cx="286.2" cy="177.6" r="30"/>
		<g>
			<g>
				<line class="st1" x1="421.4" y1="176.7" x2="451.2" y2="176.7"/>
				<line class="st1" x1="313.4" y1="176.7" x2="410.6" y2="176.7"/>
				<line class="st1" x1="145.3" y1="176.7" x2="122.3" y2="176.7"/>
				<line class="st1" x1="262.7" y1="176.7" x2="156.2" y2="176.7"/>
				<line class="st1" x1="342.2" y1="135.7" x2="307.8" y2="159.8"/>
				<line class="st1" x1="353.2" y1="128" x2="342.2" y2="135.7"/>
				<line class="st1" x1="367.1" y1="118.3" x2="353.2" y2="128"/>
				<line class="st1" x1="344.3" y1="147.1" x2="403.1" y2="118.6"/>
				<line class="st1" x1="327.1" y1="155.7" x2="340.1" y2="149.4"/>
				<line class="st1" x1="311.7" y1="163.2" x2="327.1" y2="155.7"/>
				<line class="st1" x1="393.8" y1="142.6" x2="449" y2="126"/>
				<line class="st1" x1="371" y1="149.5" x2="380.3" y2="146.7"/>
				<line class="st1" x1="311.7" y1="167.4" x2="361.8" y2="152.3"/>
				<line class="st1" x1="385.6" y1="160" x2="451.2" y2="149.1"/>
				<line class="st1" x1="361.4" y1="164" x2="376.4" y2="161.5"/>
				<line class="st1" x1="309.6" y1="172.6" x2="345.9" y2="166.6"/>
				<line class="st1" x1="292.3" y1="149.1" x2="307.8" y2="95"/>
				<line class="st1" x1="324.5" y1="111.3" x2="328.6" y2="104.4"/>
				<line class="st1" x1="319.3" y1="119.9" x2="324.5" y2="111.3"/>
				<line class="st1" x1="300.1" y1="152.3" x2="319.3" y2="119.9"/>
				<line class="st1" x1="338.7" y1="120.3" x2="345.9" y2="111.7"/>
				<line class="st1" x1="306.9" y1="154.9" x2="335.2" y2="124"/>
				<path class="st1" d="M112.9,177.1"/>
				<path class="st1" d="M139.1,177.1"/>
				<path class="st1" d="M159.9,177.1"/>
				<path class="st1" d="M247.5,177.1"/>
				<line class="st1" x1="228.3" y1="136.1" x2="266.4" y2="162.8"/>
				<line class="st1" x1="217.3" y1="128.4" x2="228.3" y2="136.1"/>
				<line class="st1" x1="203.4" y1="118.6" x2="217.3" y2="128.4"/>
				<line class="st1" x1="226.1" y1="147.5" x2="166.6" y2="118.6"/>
				<line class="st1" x1="243.4" y1="156.1" x2="230.3" y2="149.8"/>
				<line class="st1" x1="262.7" y1="165.4" x2="243.4" y2="156.1"/>
				<line class="st1" x1="176.6" y1="143" x2="122.4" y2="126.6"/>
				<line class="st1" x1="199.5" y1="149.9" x2="190.2" y2="147.1"/>
				<line class="st1" x1="263.6" y1="169.3" x2="208.6" y2="152.7"/>
				<line class="st1" x1="184.8" y1="160.4" x2="119.3" y2="149.5"/>
				<line class="st1" x1="209.1" y1="164.4" x2="194" y2="161.9"/>
				<line class="st1" x1="263.6" y1="173.4" x2="224.5" y2="167"/>
				<line class="st1" x1="280.6" y1="149.1" x2="263.6" y2="95.5"/>
				<line class="st1" x1="251.1" y1="120.3" x2="242.8" y2="106.4"/>
				<line class="st1" x1="251.1" y1="120.3" x2="248.6" y2="116"/>
				<line class="st1" x1="270.5" y1="152.9" x2="251.1" y2="120.3"/>
				<line class="st1" x1="234" y1="122.1" x2="225.4" y2="112.6"/>
				<line class="st1" x1="268.5" y1="159.8" x2="236.1" y2="124.3"/>
			</g>
		</g>
		<g>
			<path class="st2" d="M478.5,93.4c0-0.4,0-0.6,0-0.6c-53,5.4-135.3,8.5-191.9-48.1c-56,55.9-147.4,52.8-191.9,48.1
				c-0.1,3.4-1.4,38.6-0.7,51.1c-0.2,45.2,7.3,111.3,28.9,167.1c33.3,84,163.7,154.6,163.7,154.6S417.7,394.2,450.3,311
				c21.5-55.1,29.5-122.7,27.8-167.5c0.7-12.6,0.4-12.2,0.6-21.6C478.8,106.3,478.5,95.9,478.5,93.4z M464.5,131.7
				c-0.1,8.7,0.1,8.4-0.5,20c1.6,41.5-5.8,104.1-25.7,155.2C408.1,384,286.6,450.1,286.6,450.1s-120.9-65.3-151.7-143.2
				c-20-51.7-27-113-26.8-154.9c-0.6-11.6,0.6-44.2,0.7-47.4c41.2,4.4,126,7.3,177.8-44.5c52.4,52.4,128.7,49.6,177.8,44.5
				c0,0,0,0.2,0,0.5C464.4,107.6,464.7,117.3,464.5,131.7z"/>
		</g>
		<g>
			<path class="st2" d="M80.1,309c0,0,22.6-11.9,19.5-36C99.6,273,73.7,277.4,80.1,309"/>
			<path class="st2" d="M73.1,274.3c0,0,22-13.2,17.7-37.2C90.8,237,65,242.8,73.1,274.3"/>
			<path class="st2" d="M65.1,240.4c0.7,16.7,2.6,33.4,6,49.8c3.3,16.4,8,32.5,14.1,48s13.6,30.5,22.5,44.6s19,27.4,30.2,39.7
				c22.4,24.6,49.1,45.2,77.9,61.8c28.9,16.6,59.9,29.2,91.9,38.5l0,0c2.1,0.6,3.2,2.8,2.6,4.8c-0.6,2.1-2.8,3.2-4.8,2.6
				c0,0,0,0-0.1,0c-32.3-10-63.7-23.3-92.8-40.6s-55.9-38.6-78.3-64c-11.2-12.7-21.3-26.3-30.1-40.8S88,355,82.1,339.3
				c-6-15.8-10.5-32.1-13.6-48.7s-4.8-33.4-5.3-50.2c0-0.5,0.4-0.9,0.9-0.9C64.6,239.5,65.1,239.9,65.1,240.4"/>
			<path class="st2" d="M232.8,490.7c0,0,19.2-28.8,0-55.6C232.8,435.1,204.7,457.1,232.8,490.7"/>
			<path class="st2" d="M220.2,499c0,0-28.7,19.4-55.6,0.4C164.7,499.4,186.4,471.1,220.2,499"/>
			<path class="st2" d="M186.6,477.1c0,0-28.7,19.4-55.6,0.4C131.1,477.4,152.8,449.2,186.6,477.1"/>
			<path class="st2" d="M154.5,454.1c0,0-29.4,12.6-50.5-9.4C104,444.7,128.8,422.9,154.5,454.1"/>
			<path class="st2" d="M126.4,426.3c0,0-28.4,7.4-44.5-15.4C81.8,410.8,107.2,394.4,126.4,426.3"/>
			<path class="st2" d="M100.7,390.7c0,0-28.2,4.4-41.6-19.3C59.1,371.5,85.3,358,100.7,390.7"/>
			<path class="st2" d="M83.2,353.1c0,0-26.3,3.6-38.3-18.6C44.9,334.5,69.4,322.5,83.2,353.1"/>
			<path class="st2" d="M68.6,315c0,0-25.4,0.5-34.3-22C34.3,293,59,284.4,68.6,315"/>
			<path class="st2" d="M62.7,278c0,0-26-5.4-29.9-30.3C32.8,247.6,59.9,244.5,62.7,278"/>
			<path class="st2" d="M64.3,243.3c0,0,13.1-18.7,0.9-36.6C65.2,206.7,46.4,220.7,64.3,243.3"/>
			<path class="st2" d="M200.9,471.8c0,0,19.2-28.8,0-55.6C200.9,416.3,172.8,438.2,200.9,471.8"/>
			<path class="st2" d="M168.5,447.9c0,0,19.2-24.7,3.7-50C172.2,397.9,145.4,415.8,168.5,447.9"/>
			<path class="st2" d="M137.3,416.3c0,0,18.3-24.2,2.9-48.7C140.2,367.7,114.4,385.4,137.3,416.3"/>
			<path class="st2" d="M112.6,387.6c0,0,18.2-21.3,5.4-44.6C118,343,93.2,357.9,112.6,387.6"/>
			<path class="st2" d="M95.4,347.3c0,0,20.3-17.9,11.1-41.9C106.5,305.4,80.9,316.3,95.4,347.3"/>
			<path class="st2" d="M492.3,309c0,0-22.6-11.9-19.5-36C472.8,273,498.8,277.4,492.3,309"/>
			<path class="st2" d="M499.3,274.3c0,0-22-13.2-17.7-37.2C481.7,237,507.5,242.8,499.3,274.3"/>
			<path class="st2" d="M509.2,240.4c-0.5,16.8-2.2,33.6-5.3,50.2s-7.6,32.9-13.6,48.7s-13.3,31.1-22.1,45.5
				c-8.8,14.5-18.9,28.1-30.1,40.8c-22.4,25.4-49.2,46.7-78.3,64c-29.1,17.3-60.5,30.6-92.8,40.6c-2,0.6-4.2-0.5-4.9-2.6
				c-0.6-2,0.5-4.2,2.6-4.9l0,0l0,0c31.9-9.3,63-22,91.9-38.5c28.8-16.6,55.5-37.1,77.9-61.8c11.2-12.3,21.4-25.6,30.2-39.7
				c8.8-14.1,16.4-29.1,22.5-44.6s10.8-31.6,14.1-48s5.2-33,6-49.8c0-0.5,0.5-0.9,1-0.9C508.8,239.5,509.2,239.9,509.2,240.4"/>
			<path class="st2" d="M339.6,490.7c0,0-19.2-28.8,0-55.6C339.6,435.1,367.8,457.1,339.6,490.7"/>
			<path class="st2" d="M352.2,499c0,0,28.7,19.4,55.6,0.4C407.8,499.4,386,471.1,352.2,499"/>
			<path class="st2" d="M385.8,477.1c0,0,28.7,19.4,55.6,0.4C441.4,477.4,419.6,449.2,385.8,477.1"/>
			<path class="st2" d="M417.9,454.1c0,0,29.4,12.6,50.5-9.4C468.4,444.7,443.7,422.9,417.9,454.1"/>
			<path class="st2" d="M446.1,426.3c0,0,28.4,7.4,44.5-15.4C490.6,410.8,465.2,394.4,446.1,426.3"/>
			<path class="st2" d="M471.8,390.7c0,0,28.2,4.4,41.6-19.3C513.4,371.5,487.2,358,471.8,390.7"/>
			<path class="st2" d="M489.2,353.1c0,0,26.3,3.6,38.3-18.6C527.6,334.5,503,322.5,489.2,353.1"/>
			<path class="st2" d="M503.9,315c0,0,25.4,0.5,34.3-22C538.1,293,513.5,284.4,503.9,315"/>
			<path class="st2" d="M509.8,278c0,0,26-5.4,29.9-30.3C539.7,247.6,512.5,244.5,509.8,278"/>
			<path class="st2" d="M508.1,243.3c0,0-13.1-18.7-0.9-36.6C507.2,206.7,526.1,220.7,508.1,243.3"/>
			<path class="st2" d="M371.5,471.8c0,0-19.2-28.8,0-55.6C371.5,416.3,399.7,438.2,371.5,471.8"/>
			<path class="st2" d="M403.9,447.9c0,0-19.2-24.7-3.7-50C400.3,397.9,427,415.8,403.9,447.9"/>
			<path class="st2" d="M435.2,416.3c0,0-18.3-24.2-2.9-48.7C432.2,367.7,458,385.4,435.2,416.3"/>
			<path class="st2" d="M459.9,387.6c0,0-18.2-21.3-5.4-44.6C454.5,343,479.2,357.9,459.9,387.6"/>
			<path class="st2" d="M477.1,347.3c0,0-20.3-17.9-11.1-41.9C466,305.4,491.6,316.3,477.1,347.3"/>
		</g>
		<path class="st2" d="M421.1,311.4C388,378.2,285.8,433.9,285.8,433.9s-100-54.1-134.4-120.8c4.2-1.4,8-3.3,11.8-5.2
			c7.7-3.8,15-7.3,24.4-7.3s16.7,3.6,24.4,7.3c7.7,3.8,15.7,7.7,26,7.7s18.3-3.9,26-7.7c7.7-3.8,15-7.3,24.4-7.3s16.7,3.6,24.4,7.3
			c7.7,3.8,15.7,7.7,26,7.7s18.3-3.9,26-7.7s15-7.3,24.4-7.3s16.7,3.6,24.4,7.3C416.2,309.2,418.6,310.3,421.1,311.4"/>
		<g>
			<path class="st2" d="M143.7,287.8v-62.2c0-16.6,13.5-30.1,30.1-30.1s30.1,13.5,30.1,30.1v53.7c3.4,1.3,6.7,2.9,9.9,4.5
				c1.7,0.8,3.3,1.6,5,2.4v-60.5c0-16.6,13.5-30.1,30.1-30.1l0,0c16.6,0,30.1,13.5,30.1,30.1v51.6c3-0.7,6.2-1.2,9.6-1.2
				c1.8,0,3.6,0.1,5.3,0.4v-50.8c0-16.6,13.5-30.1,30.1-30.1s30.1,13.5,30.1,30.1v62.2h0.5c3-1.2,5.9-2.6,8.9-4.1
				c1.8-0.9,3.7-1.8,5.5-2.6v-55.5c0-16.6,13.5-30.1,30.1-30.1s30.1,13.5,30.1,30.1v62.2h2.5c10.7-33.8,16.2-70.9,17.4-101.5h-326
				c1.7,30.6,7.1,67.4,17.9,101.5h2.7V287.8z"/>
		</g>
		<g class="st3">
			<path class="st4" d="M244.3,376h-1.5c-0.3-1.9-0.8-3.2-1.5-3.9c-0.7-0.7-1.6-1-2.7-1c-1,0-1.8,0.3-2.4,0.8
				c-0.6,0.5-0.9,1.2-0.9,2.1c0,0.7,0.3,1.4,0.8,2s1.8,1.4,3.8,2.3s3.4,1.9,4.2,2.9s1.2,2.3,1.2,3.8c0,1.8-0.7,3.4-2,4.8
				c-1.4,1.4-3.6,2-6.6,2c-1.1,0-2.1-0.1-3.1-0.2c-0.7-0.1-1.6-0.3-2.7-0.7c0.2-1.8,0.3-3.5,0.3-5.2v-1h1.5c0.4,2,0.9,3.3,1.4,4
				c0.8,0.9,1.8,1.4,3.1,1.4c1.1,0,1.9-0.3,2.6-0.9c0.6-0.6,1-1.4,1-2.4c0-0.6-0.1-1.2-0.4-1.7c-0.3-0.5-0.7-0.9-1.2-1.3
				s-1.5-0.9-2.9-1.6c-2.1-1-3.6-2-4.3-2.9s-1.1-2-1.1-3.3c0-1.8,0.7-3.4,2-4.6c1.4-1.2,3.3-1.8,5.9-1.8c1.7,0,3.6,0.3,5.6,1
				c-0.1,1.6-0.1,2.7-0.1,3.3C244.2,374.4,244.3,375.2,244.3,376z"/>
			<path class="st4" d="M274.5,376.2h-1.4c-0.7-2.1-1.1-3.3-1.3-3.6c-0.2-0.3-0.4-0.5-0.7-0.6c-0.3-0.1-1.2-0.2-2.7-0.2h-1.5v14.1
				c0,1.7,0.1,2.8,0.2,3.2c0.1,0.2,0.2,0.3,0.4,0.5c0.2,0.1,1.1,0.3,2.7,0.6v1.1c-3.1-0.1-5-0.2-5.9-0.2c-1.2,0-3,0.1-5.4,0.2v-1.1
				c1.6-0.3,2.6-0.5,2.9-0.7c0.2-0.1,0.3-0.3,0.4-0.5c0.1-0.3,0.1-1.3,0.1-3.2v-13.9h-2.5c-0.9,0-1.4,0.1-1.7,0.2
				c-0.3,0.1-0.5,0.4-0.7,0.8c-0.3,0.6-0.7,1.7-1.1,3.4h-1.4c0.2-1.5,0.3-2.5,0.3-3.1s0.1-1.7,0.1-3.3c4,0.1,7.9,0.2,11.7,0.1
				c3.2,0,5.5-0.1,6.9-0.1C274.1,371.8,274.2,373.9,274.5,376.2z"/>
			<path class="st4" d="M283.4,371v-1.1c2.4,0.1,5.1,0.2,7.9,0.2c3.3,0,6.7-0.1,10.2-0.2c0,2.1,0.2,3.9,0.4,5.5h-1.3
				c-0.1-0.3-0.2-0.6-0.3-0.7c-0.5-1.4-0.9-2.3-1.2-2.5c-0.3-0.2-0.9-0.3-1.9-0.3h-5.8c-0.1,1.7-0.1,4.2-0.2,7.4h2.6
				c1.4,0,2.2-0.1,2.5-0.4s0.7-1.2,1-2.7h1.3c-0.1,1.5-0.2,2.8-0.2,3.9s0.1,2.4,0.2,4h-1.3c-0.3-1.6-0.6-2.5-0.8-2.8
				c-0.3-0.2-1.1-0.4-2.4-0.4h-3v8.4h6c0.7,0,1.1,0,1.3-0.1c0.4-0.1,0.7-0.4,1-0.7c0.6-0.7,1.3-1.8,2.2-3.2h1.3
				c-0.6,1.7-1.2,3.6-1.9,6c-3.4-0.1-7-0.2-10.7-0.2c-1.7,0-4.1,0.1-7.1,0.2v-1.1c1.7-0.3,2.6-0.5,2.9-0.7s0.5-0.8,0.5-1.7v-0.5v-6
				v-4.8v-2.2c0-1.1-0.1-1.7-0.2-2s-0.3-0.5-0.6-0.6S284.8,371.2,283.4,371z"/>
			<path class="st4" d="M311.9,371v-1.1c1.8,0.1,3.3,0.2,4.4,0.2c1.2,0,2.6-0.1,4.1-0.2c0.4,1.1,1,2.5,1.7,4.1
				c1.9,4.2,3.5,7.8,5,10.7l3.8-8.2c0.6-1.3,1.1-2.4,1.4-3.3c0.4-0.9,0.8-2,1.3-3.3c1.9,0.1,3.3,0.2,4.2,0.2c0.7,0,2.1-0.1,4-0.2
				v1.1c-0.3,0.1-0.5,0.1-0.7,0.1c-1.3,0.2-2,0.4-2.2,0.6s-0.3,0.6-0.4,1.1s-0.1,2.8-0.1,6.8c0,5.1,0,7.7,0,7.9
				c0,0.8,0.1,1.3,0.2,1.5s0.2,0.3,0.3,0.4c0.4,0.2,1.1,0.4,2.2,0.6l0.7,0.1v1.1c-2.4-0.1-4.3-0.2-5.6-0.2c-1.3,0-3.3,0.1-5.8,0.2
				v-1.1c1.6-0.3,2.5-0.5,2.7-0.6s0.3-0.2,0.4-0.3c0.1-0.1,0.2-0.3,0.2-0.6c0-0.2,0.1-1.3,0.1-3.1c0-3.9,0-7,0-9.3c0-0.2,0-0.9,0-2
				c-0.6,1.1-2.6,5.6-6.1,13.4l-1.5,3.4H325c-1.1-2.6-3.7-8.2-7.7-16.8c0,1.3,0,2.4,0,3.3c0,5,0,8.3,0.1,9.9
				c0.1,0.9,0.1,1.4,0.2,1.6s0.2,0.3,0.5,0.5c0.2,0.1,0.9,0.3,2,0.5c0.1,0,0.3,0.1,0.6,0.1v1.1c-1.4-0.1-2.8-0.2-4.1-0.2
				c-1.3,0-2.9,0.1-4.6,0.2v-1.1c1.3-0.2,2.1-0.4,2.4-0.5s0.5-0.3,0.6-0.5s0.2-0.7,0.2-1.3l0.2-9.6c0-1.7,0.1-2.9,0.1-3.7
				c0-1.3-0.1-2.1-0.2-2.5c-0.1-0.2-0.2-0.4-0.5-0.5c-0.2-0.1-1-0.3-2.2-0.4C312.4,371.1,312.2,371.1,311.9,371z"/>
		</g>
		<g>
			<g>
				<g>
					<path class="st4" d="M218.1,359v-1.5c2.9-0.4,3-0.9,2.4-2.8c-0.5-1.5-1.3-3.6-2.1-5.8h-9.2c-0.6,1.6-1.2,3.4-1.8,5
						c-1,2.9,0,3.3,3.6,3.6v1.5h-11v-1.5c2.9-0.4,3.6-0.7,5.2-4.7l9.5-23.7l1.9-0.4c2.9,7.9,6,16.2,8.9,23.9c1.6,4.1,2,4.5,5.1,4.8
						v1.5h-12.5L218.1,359L218.1,359z M213.9,336.3c-1.4,3.5-2.7,6.9-4,10.4h7.7L213.9,336.3z"/>
					<path class="st4" d="M255.2,336.7c-0.9-2.9-2.1-6.1-6.4-6.1c-3,0-4.5,2.1-4.5,4.6c0,2.7,1.8,4.3,5.7,6.3
						c5.1,2.6,7.9,4.8,7.9,9.3c0,5.2-4.4,9-10.6,9c-2.9,0-5.4-0.8-7.4-1.4c-0.3-1.1-1-5.3-1.3-7.5l1.6-0.4c0.9,2.9,3.3,7.5,7.8,7.5
						c3,0,4.8-1.9,4.8-4.9c0-2.9-1.7-4.4-5.6-6.5c-4.8-2.6-7.7-4.8-7.7-9.4c0-4.5,3.6-8.3,10.2-8.3c2.9,0,5.4,0.7,6.3,0.8
						c0.2,1.7,0.5,3.8,0.8,6.8L255.2,336.7z"/>
					<path class="st4" d="M294.6,330.9c-3,0.3-3.9,0.9-5.6,3.8c-1.8,3-3.3,5.7-5.5,10.1c-0.4,0.8-0.6,1.4-0.6,2.5v5.6
						c0,3.9,0.4,4.1,4.3,4.5v1.5h-13.9v-1.5c3.8-0.5,4.1-0.6,4.1-4.5v-5.5c0-1-0.2-1.4-0.6-2.3c-1.4-2.8-3.1-5.8-5.7-10.4
						c-1.7-3-2.3-3.6-5.1-3.9v-1.5h12.6v1.5c-3.1,0.4-3,1-2.2,2.6c1.6,3.2,3.7,7,5.5,10.3c1.5-2.7,3.8-7.3,5.1-10
						c0.9-2,0.6-2.5-2.7-2.9v-1.5h10.5v1.6L294.6,330.9L294.6,330.9z"/>
					<path class="st4" d="M332.7,330.9c-2.9,0.2-3.8,1.1-3.9,2.9c-0.1,1.3-0.2,2.9-0.2,6.5v5.6c0,4.2-0.6,8-3.2,10.7
						c-2.1,2.2-5.3,3.1-8.5,3.1c-2.9,0-5.8-0.6-7.9-2.3c-2.7-2-4-4.9-4-10.1v-11.6c0-4.2-0.4-4.5-3.9-4.8v-1.5h13.3v1.5
						c-3.5,0.3-3.9,0.6-3.9,4.8v11.8c0,5.6,2.7,9.1,7.8,9.1c5.8,0,8-4,8-11.1v-5.3c0-3.5-0.1-5.2-0.2-6.5c-0.2-2.1-1.4-2.6-4.6-2.8
						v-1.5h11.2L332.7,330.9L332.7,330.9z"/>
					<path class="st4" d="M366.8,337c-0.5-1.9-1.3-3.5-1.8-4.2c-0.8-1.1-1.2-1.4-3.8-1.4h-3.5v21.7c0,3.7,0.4,4.1,4.6,4.4v1.5h-14.5
						v-1.5c4-0.3,4.4-0.6,4.4-4.4v-21.7h-3.3c-2.5,0-3.3,0.4-4.1,1.6c-0.6,0.9-1.1,2.3-1.7,4.1h-1.6c0.3-3.1,0.6-6.4,0.7-8.8h1.3
						c0.7,1.1,1.2,1.1,2.5,1.1h18.2c1.2,0,1.8-0.2,2.5-1.1h1.2c0,2,0.2,5.7,0.4,8.6L366.8,337z"/>
				</g>
			</g>
		</g>
		<g>
			<path class="st2" d="M194.2,240.9c0.4-0.4,0.8-0.9,1.1-1.4c1.7-2.2,2.9-4.3,3.9-6.5c0.9-2.2,1.5-4.1,1.5-6c0-1.8-0.6-3.3-1.6-4.7
				c-0.9-1.3-2.2-2.2-3.6-2.7c-1.5-0.5-3.2-0.8-5.1-0.8c-2.1,0-4.3,0.3-6.6,0.9c-0.1-0.4-0.3-0.8-0.4-1.1c-1.4-2.9-2.8-5.3-4.7-7
				c-0.8-0.9-1.9-1.5-2.8-2c-1.1-0.5-2.1-0.8-3.2-0.8c-1.1,0-2.2,0.3-3.2,0.8c-1.8,0.8-3.3,2.3-4.8,4.1c-1.1,1.7-2.2,3.5-3,5.7
				c-2.4-0.6-4.6-0.9-6.6-0.9c-1.9,0-3.5,0.3-5,0.8c-1.5,0.6-2.7,1.5-3.6,2.6c-1.1,1.3-1.5,3-1.5,4.8c0,1.9,0.4,3.8,1.4,6
				c1.1,2.5,2.7,5.1,4.8,7.8c-0.3,0.4-0.7,0.9-1,1.3c-1.8,2.3-3,4.5-4,6.6c-0.9,2.1-1.4,4.1-1.4,6c0,1.7,0.4,3.4,1.4,4.7
				c1,1.3,2.3,2.1,3.8,2.6c1.5,0.6,3.1,0.8,5,0.8c2.1,0,4.2-0.2,6.6-0.8c0.2,0.3,0.4,0.7,0.5,1.1c1.3,2.8,2.8,5.2,4.6,7
				c0.9,0.8,1.9,1.5,2.8,2c1.1,0.5,2.2,0.8,3.2,0.8c1.2,0,2.2-0.3,3.2-0.8c1.9-0.8,3.4-2.4,4.8-4.2c1.2-1.6,2.2-3.4,3-5.7
				c2.4,0.6,4.6,0.9,6.7,0.9c1.9,0,3.5-0.2,5-0.7c1.5-0.7,2.6-1.5,3.6-2.7c1-1.3,1.5-2.9,1.5-4.8c0-1.9-0.5-3.8-1.4-6
				C198,246.2,196.4,243.6,194.2,240.9 M190.4,221.2c1.7,0,3.1,0.2,4.3,0.7c1.2,0.4,2,1,2.6,1.9c0.7,0.9,1,2,1,3.3
				c0,1.5-0.3,3.1-1.2,5c-0.9,2.3-2.5,4.6-4.4,7l-0.2-0.2c-1.6-1.8-3.3-3.5-5.4-5.3c-0.4-4.3-1.3-8.2-2.5-11.7
				C186.7,221.4,188.7,221.2,190.4,221.2 M187.3,236.9c1.4,1.4,2.7,2.6,3.8,4l-0.4,0.4c-1.1,1.2-2.2,2.3-3.4,3.4
				c0.1-1.3,0.1-2.6,0.1-3.9C187.4,239.5,187.4,238.3,187.3,236.9 M185.1,240.8c0,2.1,0,4.1-0.2,6.2c-1.6,1.2-3.1,2.4-4.9,3.6
				c-2.4,1.7-5,3.2-7.4,4.5c-2.5-1.3-5-2.8-7.4-4.5c-1.8-1.3-3.3-2.5-4.8-3.8c-0.2-1.9-0.3-3.9-0.3-6c0-2.2,0.1-4.2,0.3-6.1
				c1.6-1.4,3.1-2.5,4.8-3.8c2.6-1.7,5-3.1,7.5-4.4c2.5,1.3,4.9,2.8,7.4,4.6c1.7,1.1,3.3,2.4,4.8,3.6
				C185.1,236.7,185.1,238.8,185.1,240.8 M183.4,225.8c0.4,1.8,0.8,3.6,1,5.6c-1-0.8-1.9-1.6-2.9-2.3c-2.1-1.5-4.1-2.7-6.2-3.9
				c1.3-0.6,2.5-1.1,3.6-1.5c1.2-0.5,2.4-0.9,3.4-1.3C182.6,223.6,183,224.7,183.4,225.8 M164.1,219.7c1.2-2.7,2.5-4.8,4-6.3
				c0.7-0.7,1.6-1.2,2.3-1.6c0.8-0.4,1.6-0.5,2.3-0.5c0.8,0,1.6,0.1,2.3,0.5c1.4,0.6,2.6,1.8,3.8,3.4c1.1,1.5,2,3.1,2.8,5.1
				c-1.2,0.4-2.4,0.7-3.5,1.2c-1.8,0.7-3.5,1.4-5.2,2.4c-2-1-3.7-1.8-5.5-2.4c-1.2-0.5-2.4-0.9-3.4-1.3
				C163.9,220,164,219.9,164.1,219.7 M163,222.4c1.1,0.3,2.3,0.7,3.5,1.2s2.4,1.1,3.6,1.7c-2.1,1.1-4.1,2.5-6.2,3.8
				c-1.1,0.8-2.2,1.6-3.2,2.4C161.3,228.1,162.1,225.1,163,222.4 M148.3,232c-0.8-2-1.2-3.6-1.2-5.1c0-1.4,0.3-2.4,1-3.4
				c0.7-0.8,1.6-1.4,2.6-1.8c1.2-0.5,2.6-0.7,4.2-0.7c1.7,0,3.6,0.2,5.8,0.8c-0.4,1.1-0.8,2.3-1.1,3.5c-0.6,2.5-1.1,5.3-1.5,8.1
				c-2.1,1.8-3.9,3.6-5.6,5.5c-0.2-0.3-0.4-0.7-0.7-1C150.4,235.9,149.2,233.9,148.3,232 M157.9,236.9v3.9v3.8
				c-1.3-1.3-2.5-2.6-3.8-3.9l0.4-0.4C155.6,239.2,156.8,238,157.9,236.9 M154.9,260.5c-1.6,0-3.1-0.3-4.2-0.7
				c-1.2-0.4-2.1-1.1-2.6-1.9c-0.7-0.9-1-2-1-3.3c0-1.5,0.4-3.2,1.3-5.1c0.9-2.2,2.4-4.5,4.3-6.9l0.2,0.1c1.6,1.8,3.4,3.6,5.4,5.4
				c0.5,4.2,1.3,8.1,2.5,11.6C158.6,260.2,156.6,260.5,154.9,260.5 M161.9,255.7c-0.5-1.7-0.8-3.6-1.2-5.5c1.1,0.7,2.1,1.5,3.1,2.3
				c2.1,1.4,4.1,2.7,6.2,3.9c-1.3,0.5-2.5,1-3.6,1.6c-1.2,0.4-2.4,0.8-3.5,1.2C162.5,258.1,162.2,256.9,161.9,255.7 M181.3,262
				c-1.3,2.6-2.6,4.8-4,6.2c-0.9,0.7-1.6,1.2-2.4,1.6c-0.7,0.4-1.5,0.6-2.3,0.6c-0.7,0-1.5-0.2-2.3-0.6c-1.3-0.5-2.6-1.8-3.8-3.4
				c-1-1.4-2-3-2.7-5c1.1-0.4,2.4-0.8,3.5-1.2c1.7-0.7,3.4-1.5,5.3-2.4c1.8,0.9,3.5,1.7,5.3,2.4c1.3,0.6,2.4,0.9,3.5,1.3
				C181.4,261.6,181.4,261.9,181.3,262 M182.3,259.3c-1.2-0.4-2.4-0.8-3.5-1.2c-1.2-0.5-2.5-1.1-3.6-1.7c2.1-1.2,4.1-2.4,6.2-3.8
				c1-0.8,2.1-1.6,3-2.4C183.9,253.5,183.2,256.6,182.3,259.3 M197.1,258.2c-0.6,0.7-1.5,1.3-2.6,1.9c-1.1,0.3-2.6,0.6-4.1,0.6
				c-1.7,0-3.7-0.3-5.8-0.8c0.3-1.1,0.7-2.3,1-3.4c0.7-2.5,1.2-5.4,1.5-8.3c2.1-1.8,3.9-3.5,5.6-5.4c0.2,0.4,0.5,0.7,0.7,1
				c1.7,2.1,2.8,4,3.6,6c0.8,1.9,1.2,3.6,1.2,5C198.1,256,197.8,257.2,197.1,258.2"/>
			<path class="st2" d="M172.6,235.1c-3.1,0-5.8,2.5-5.8,5.8c0,3.1,2.6,5.9,5.8,5.9s5.8-2.7,5.8-5.9
				C178.4,237.6,175.9,235.1,172.6,235.1"/>
			<path class="st2" d="M345.6,264.2c0.7,0.4,1.5,0.1,1.8-0.5l3-5.3c0.2-0.3,0.2-0.7,0.1-1s-0.3-0.6-0.6-0.8l-2.1-1.2
				c0.3-1.2,0.5-2.5,0.5-3.8l2.3-0.6c0.7-0.2,1.1-0.9,0.9-1.7l-1.6-5.9c-0.1-0.3-0.3-0.6-0.6-0.8c-0.3-0.2-0.7-0.2-1-0.1l-2.3,0.6
				c-0.7-1.1-1.4-2.1-2.3-3l1.2-2.1c0.4-0.7,0.1-1.5-0.5-1.8l-5.3-3c-0.3-0.2-0.7-0.2-1-0.1s-0.6,0.3-0.8,0.6l-1.2,2.1
				c-1.2-0.3-2.5-0.5-3.8-0.5l-0.6-2.3c-0.1-0.3-0.3-0.6-0.6-0.8c-0.3-0.2-0.7-0.2-1-0.1l-5.9,1.6c-0.3,0.1-0.6,0.3-0.8,0.6
				c-0.2,0.3-0.2,0.7-0.1,1l0.6,2.3c-1.1,0.7-2.1,1.4-3,2.3l-2.1-1.2c-0.3-0.2-0.7-0.2-1-0.1s-0.6,0.3-0.8,0.6l-3,5.3
				c-0.4,0.7-0.1,1.5,0.5,1.8l2.1,1.2c-0.3,1.2-0.5,2.5-0.5,3.8l-2.3,0.6c-0.3,0.1-0.6,0.3-0.8,0.6c-0.2,0.3-0.2,0.7-0.1,1l1.6,5.9
				c0.1,0.3,0.3,0.6,0.6,0.8c0.3,0.2,0.7,0.2,1,0.1l2.3-0.6c0.7,1.1,1.4,2.1,2.3,3l-1.2,2.1c-0.4,0.7-0.1,1.5,0.5,1.8l5.3,3
				c0.1,0,0.2,0.1,0.2,0.1c0.6,0.2,1.3,0,1.6-0.6l1.2-2.1c1.2,0.3,2.5,0.5,3.8,0.5l0.6,2.3c0.1,0.3,0.3,0.6,0.6,0.8
				c0.3,0.2,0.7,0.2,1,0.1l5.9-1.6c0.7-0.2,1.1-0.9,0.9-1.7l-0.6-2.3c1.1-0.7,2.1-1.4,3-2.3L345.6,264.2z M342.3,260.4
				c-1.1,1.3-2.4,2.3-3.9,3.1c-0.6,0.3-0.9,0.9-0.7,1.6l0.6,2L335,268l-0.6-2c-0.2-0.6-0.8-1-1.4-1c-1.7,0.1-3.4-0.1-5-0.6
				c-0.6-0.2-1.3,0.1-1.6,0.6l-1,1.8l-2.9-1.7l1-1.8c0.3-0.6,0.2-1.3-0.3-1.7c-1.3-1.1-2.3-2.4-3.1-3.9c-0.3-0.6-0.9-0.9-1.6-0.7
				l-2,0.6l-0.9-3.3l2-0.6c0.6-0.2,1-0.8,1-1.4c-0.1-1.7,0.1-3.4,0.6-5c0.2-0.6-0.1-1.3-0.6-1.6l-1.8-1l1.7-2.9l1.8,1
				c0.6,0.3,1.3,0.2,1.7-0.3c1.1-1.3,2.4-2.3,3.9-3.1c0.6-0.3,0.9-0.9,0.7-1.6l-0.6-2l3.3-0.9l0.6,2c0.2,0.6,0.8,1,1.4,1
				c1.7-0.1,3.4,0.1,5,0.6c0.6,0.2,1.3-0.1,1.6-0.6l1-1.8l2.9,1.7l-1,1.8c-0.3,0.6-0.2,1.3,0.3,1.7c1.3,1.1,2.3,2.4,3.1,3.9
				c0.3,0.6,1,0.9,1.6,0.7l2-0.6l0.9,3.3l-2,0.6c-0.6,0.2-1,0.8-1,1.4c0.1,1.7-0.1,3.4-0.6,5c-0.2,0.6,0.1,1.3,0.6,1.6l1.8,1l-1.7,3
				l-1.8-1C343.4,259.8,342.7,259.9,342.3,260.4z"/>
			<path class="st2" d="M337,243c-2.3-1.3-4.9-1.6-7.4-0.9s-4.6,2.3-5.9,4.6s-1.6,4.9-0.9,7.4s2.3,4.6,4.6,5.9
				c0.5,0.3,1.1,0.6,1.7,0.8c4.3,1.5,9.3-0.3,11.6-4.4C343.3,251.6,341.6,245.6,337,243z M338.3,254.9c-0.9,1.6-2.4,2.8-4.2,3.3
				c-1.8,0.5-3.7,0.3-5.3-0.7c-1.6-0.9-2.8-2.4-3.3-4.2s-0.3-3.7,0.7-5.3c0.9-1.6,2.4-2.8,4.2-3.3c1.4-0.4,2.8-0.3,4.1,0.1
				c0.4,0.1,0.8,0.3,1.2,0.5C339,247.3,340.2,251.6,338.3,254.9z"/>
			<path class="st2" d="M295.7,223.6c-0.1,0.6,0.3,1.1,0.8,1.2l1.7,0.3c0.1,1,0.3,1.9,0.6,2.8l-1.5,1c-0.2,0.2-0.4,0.4-0.4,0.7
				s0,0.5,0.2,0.8l2.6,3.8c0.3,0.5,1,0.6,1.4,0.3l1.5-1c0.7,0.6,1.5,1.1,2.4,1.6l-0.3,1.7c0,0.3,0,0.5,0.2,0.8
				c0.1,0.2,0.3,0.3,0.5,0.4h0.1l4.5,0.8c0.6,0.1,1.1-0.3,1.2-0.8l0.3-1.7c1-0.1,1.9-0.3,2.8-0.6l1,1.5c0.3,0.5,1,0.6,1.4,0.3
				l3.8-2.6c0.5-0.3,0.6-1,0.3-1.4l-1-1.5c0.6-0.7,1.1-1.5,1.6-2.4l1.7,0.3c0.3,0,0.5,0,0.8-0.2c0.2-0.2,0.4-0.4,0.4-0.7l0.8-4.5
				c0.1-0.6-0.3-1.1-0.8-1.2l-1.7-0.3c-0.1-1-0.3-1.9-0.6-2.8l1.5-1c0.2-0.2,0.4-0.4,0.4-0.7c0.1-0.3,0-0.5-0.2-0.8l-2.6-3.8
				c-0.2-0.2-0.4-0.4-0.7-0.4c-0.3,0-0.5,0-0.8,0.2l-1.5,1c-0.7-0.6-1.5-1.1-2.4-1.6l0.3-1.7c0.1-0.6-0.3-1.1-0.8-1.2l-4.5-0.8
				c-0.3,0-0.5,0-0.8,0.2s-0.4,0.4-0.4,0.7l-0.3,1.7c-1,0.1-1.9,0.3-2.8,0.6l-1-1.5c-0.2-0.2-0.4-0.4-0.7-0.4c-0.3,0-0.5,0-0.8,0.2
				l-3.8,2.6c-0.2,0.2-0.4,0.4-0.4,0.7c-0.1,0.3,0,0.5,0.2,0.8l1,1.5c-0.6,0.7-1.1,1.5-1.6,2.4l-1.7-0.3c-0.3,0-0.5,0-0.8,0.2
				c-0.2,0.2-0.4,0.4-0.4,0.7L295.7,223.6z M299.9,220.8c0.5,0.1,0.9-0.2,1.1-0.6c0.5-1.2,1.2-2.2,2-3.1c0.3-0.3,0.4-0.9,0.1-1.3
				l-0.9-1.3l2.1-1.4l0.9,1.3c0.3,0.4,0.8,0.5,1.2,0.4c1.2-0.5,2.4-0.8,3.7-0.8c0.5,0,0.9-0.4,1-0.8l0.3-1.5l2.5,0.5l-0.2,1.3
				c-0.1,0.5,0.2,0.9,0.6,1.1c1.2,0.5,2.2,1.2,3.1,2c0.3,0.3,0.9,0.4,1.3,0.1l1.3-0.9l1.4,2.1l-1.3,0.9c-0.4,0.3-0.5,0.8-0.4,1.2
				c0.5,1.2,0.8,2.4,0.8,3.7c0,0.5,0.4,0.9,0.8,1l1.5,0.3l-0.5,2.5l-1.5-0.3c-0.5-0.1-0.9,0.2-1.1,0.6c-0.5,1.2-1.2,2.2-2,3.1
				c-0.3,0.3-0.4,0.9-0.1,1.3l0.9,1.3l-2.1,1.4l-0.9-1.3c-0.3-0.4-0.8-0.6-1.2-0.4c-1.2,0.5-2.4,0.8-3.7,0.8c-0.5,0-0.9,0.4-1,0.8
				l-0.3,1.5l-2.5-0.5l0.3-1.5c0.1-0.5-0.2-0.9-0.6-1.1c-1.2-0.5-2.2-1.2-3.1-2c-0.1-0.1-0.2-0.2-0.4-0.2c-0.3-0.1-0.6-0.1-0.9,0.1
				l-1.3,0.9l-1.4-2.1l1.3-0.9c0.4-0.3,0.6-0.8,0.4-1.2c-0.5-1.2-0.8-2.4-0.8-3.7c0-0.5-0.4-0.9-0.8-1l-1.5-0.3l0.5-2.5L299.9,220.8
				z"/>
			<path class="st2" d="M308.1,231c0.3,0.1,0.7,0.2,1,0.3c4,0.7,7.8-1.9,8.5-5.9s-1.9-7.8-5.9-8.5s-7.8,1.9-8.5,5.9
				C302.6,226.3,304.7,229.8,308.1,231 M311.4,218.8c0.3,0,0.5,0.1,0.7,0.2c2.5,0.8,4,3.4,3.5,6c-0.5,2.9-3.3,4.8-6.2,4.2
				c-2.9-0.5-4.8-3.3-4.2-6.2C305.8,220.2,308.5,218.3,311.4,218.8"/>
			<path class="st2" d="M412.5,224.5h7v-5.4h-28.9c-9.8,0-13.3,4-14.7,8l1.8,1.5c3-2.2,3.2-3.5,10.7-3.9l-2.1,21l0,0
				c-0.6,5.6-5.1,8.3-6.5,10.9c-1.4,2.6,2.4,6.1,6.5,6.1c2.4,0,4.2-2.2,4.6-6.5c0-0.3,2.3-23.3,3.1-31.7c0.4,0,0.8,0,1.2,0h11.5
				c-0.7,7.4-2.6,26.1-2.8,28.9c-0.6,5.4,1.1,9.3,5.9,9.3c3.9,0,7.8-2.4,8.1-8.9h-2.4c0,0-0.8,3.5-3.3,3.8c-1.5,0.2-2.9-0.9-2.5-5.3
				L412.5,224.5z"/>
			<path class="st2" d="M249.2,232.6c2.4-0.5,4.2-2.6,4.2-5.1c0-2.9-2.4-5.3-5.3-5.3s-5.3,2.4-5.3,5.3c0,2.5,1.8,4.6,4.4,5.1v33.7
				c-1.5,0.5-2.4,1.6-2.4,3c0,1.8,1.4,3.2,3.2,3.2s3.2-1.4,3.2-3.2c0-1.4-0.9-2.5-2.1-3L249.2,232.6L249.2,232.6z M249.4,269.3
				c0,0.7-0.6,1.3-1.3,1.3s-1.3-0.6-1.3-1.3c0-0.7,0.6-1.3,1.3-1.3C248.8,267.9,249.4,268.5,249.4,269.3z M244.9,227.4
				c0-1.8,1.4-3.2,3.2-3.2s3.2,1.4,3.2,3.2s-1.4,3.2-3.2,3.2S244.9,229.2,244.9,227.4z"/>
			<path class="st2" d="M257.8,245c6.3-3.5,10.6-10.2,10.5-18c-0.1-10.5-8.6-19.3-19.1-19.9c-11.6-0.6-21.2,8.6-21.2,20.1
				c0,7.6,4.3,14.3,10.5,17.7v27.6c0,0-2.7,1.6-2.7,3c0,1.8,1.4,3.2,3.2,3.2s3.2-1.4,3.2-3.2c0-1.4-1.8-3-1.8-3v-28.1
				c-0.8-0.4-1.5-0.8-2.3-1.2c-5.7-3.6-9.4-10.2-8.7-17.6c0.8-8.7,7.8-15.9,16.5-16.9c11.3-1.3,20.9,7.6,20.9,18.6
				c0,6.7-3.5,12.5-8.8,15.9c-0.7,0.5-1.5,0.9-2.3,1.2V259c-1.2,0.5-2.1,1.6-2.1,3c0,1.8,1.4,3.2,3.2,3.2c1.8,0,3.2-1.4,3.2-3.2
				c0-1.4-2.5-3-2.5-3v-14H257.8z M239.1,276.9c-0.7,0-1.3-0.6-1.3-1.3c0-0.7,0.6-1.3,1.3-1.3s1.3,0.6,1.3,1.3
				C240.4,276.3,239.8,276.9,239.1,276.9z M258.4,262.1c0,0.7-0.6,1.3-1.3,1.3c-0.7,0-1.3-0.6-1.3-1.3s0.6-1.3,1.3-1.3
				C257.8,260.7,258.4,261.3,258.4,262.1z"/>
			<path class="st2" d="M243,275.5c0,2.2-1.7,3.9-3.9,3.9s-3.9-1.7-3.9-3.9c0-2.1,1.7-3.9,3.9-3.9C241.2,271.6,243,273.4,243,275.5"
				/>
			<path class="st2" d="M261,262.1c0,2.2-1.7,3.9-3.9,3.9c-2.2,0-3.9-1.7-3.9-3.9c0-2.1,1.7-3.9,3.9-3.9
				C259.2,258.2,261,259.9,261,262.1"/>
			<path class="st2" d="M249.4,269.3c0,0.7-0.6,1.3-1.3,1.3s-1.3-0.6-1.3-1.3c0-0.7,0.6-1.3,1.3-1.3
				C248.8,267.9,249.4,268.5,249.4,269.3"/>
		</g>
	</g>
	<g>
		<g>
			<g>
				<defs>
					<path id="SVGID_1_" d="M122,116.9c0,0,0.5,34.2,1,43.4c-0.2,38.5,6.2,94.7,24.6,142.3c28.3,71.5,139.3,131.6,139.3,131.6
						s111.6-60.8,139.4-131.6c18.3-46.9,25.1-104.5,23.6-142.6c0.6-10.7,0.4-10.4,0.5-18.4c0.2-13.3-0.1-22.2-0.1-24.3
						c0-0.3,0-0.5,0-0.5c-45.1,4.6-115.2,7.2-163.3-40.9c-52.3,46.6-119.4,45.6-157.3,41.6L122,116.9z"/>
				</defs>
				<clipPath id="SVGID_3_">
					<use xlink:href="#SVGID_1_"  style="overflow:visible;"/>
				</clipPath>
				<path class="st5" d="M445.5,311.9v4.6c-1.8,0.3-3.7,0.4-5.5,0.4c-3.9,0-7.5-0.6-10.8-1.5c-5.5-1.5-10.4-3.9-15.2-6.2
					c-7.7-3.8-15-7.3-24.4-7.3s-16.7,3.6-24.4,7.3c-7.7,3.8-15.7,7.7-26,7.7s-18.3-3.9-26-7.7s-15-7.3-24.4-7.3s-16.7,3.6-24.4,7.3
					c-7.7,3.8-15.8,7.7-26,7.7c-10.3,0-18.3-3.9-26-7.7c-7.7-3.8-15-7.3-24.4-7.3s-16.7,3.6-24.4,7.3c-6.2,3-12.6,6.2-20.2,7.3
					c-1.9,0.3-3.8,0.4-5.8,0.4c-3.4,0-6.7-0.4-10.1-1.3v-4h-1.3v-1.1c3.9,1.2,7.6,1.8,11.3,1.8c1.5,0,2.9-0.1,4.3-0.2
					c7.4-0.9,13.6-3.9,20.1-7.1c7.7-3.8,15.7-7.7,26-7.7s18.3,3.9,26,7.7s15,7.3,24.4,7.3s16.7-3.6,24.4-7.3
					c7.7-3.8,15.8-7.7,26-7.7c10.3,0,18.3,3.9,26,7.7s15,7.3,24.4,7.3s16.7-3.6,24.4-7.3c7.7-3.8,15.7-7.7,26-7.7s18.3,3.9,26,7.7
					c5,2.4,9.7,4.8,15,6.1c2.9,0.8,6,1.2,9.4,1.2C441.8,312.3,443.6,312.2,445.5,311.9"/>
			</g>
		</g>
		<g>
			<g>
				<defs>
					<path id="SVGID_4_" d="M122,116.9c0,0,0.5,34.2,1,43.4c-0.2,38.5,6.2,94.7,24.6,142.3c28.3,71.5,139.3,131.6,139.3,131.6
						s111.6-60.8,139.4-131.6c18.3-46.9,25.1-104.5,23.6-142.6c0.6-10.7,0.4-10.4,0.5-18.4c0.2-13.3-0.1-22.2-0.1-24.3
						c0-0.3,0-0.5,0-0.5c-45.1,4.6-115.2,7.2-163.3-40.9c-52.3,46.6-119.4,45.6-157.3,41.6L122,116.9z"/>
				</defs>
				<clipPath id="SVGID_5_">
					<use xlink:href="#SVGID_4_"  style="overflow:visible;"/>
				</clipPath>
				<path class="st6" d="M446,288.4v4.6c-1.8,0.3-3.7,0.4-5.5,0.4c-3.9,0-7.5-0.6-10.8-1.5c-5.5-1.5-10.4-3.9-15.2-6.2
					c-7.7-3.8-15-7.3-24.4-7.3s-16.7,3.6-24.4,7.3c-7.7,3.8-15.7,7.7-26,7.7s-18.3-3.9-26-7.7s-15-7.3-24.4-7.3s-16.7,3.6-24.4,7.3
					c-7.7,3.8-15.8,7.7-26,7.7c-10.3,0-18.3-3.9-26-7.7s-15-7.3-24.4-7.3s-16.7,3.6-24.4,7.3c-6.2,3-12.6,6.2-20.2,7.3
					c-1.9,0.3-3.8,0.4-5.8,0.4c-3.4,0-6.7-0.4-10.1-1.3v-4h-1.3v-1.1c3.9,1.2,7.6,1.8,11.3,1.8c1.5,0,2.9-0.1,4.3-0.2
					c7.4-0.9,13.6-3.9,20.1-7.1c7.7-3.8,15.7-7.7,26-7.7s18.3,3.9,26,7.7s15,7.3,24.4,7.3s16.7-3.6,24.4-7.3
					c7.7-3.8,15.8-7.7,26-7.7c10.3,0,18.3,3.9,26,7.7c7.7,3.8,15,7.3,24.4,7.3s16.7-3.6,24.4-7.3c7.7-3.8,15.7-7.7,26-7.7
					s18.3,3.9,26,7.7c5,2.4,9.7,4.8,15,6.1c2.9,0.8,6,1.2,9.4,1.2C442.3,288.8,444.1,288.7,446,288.4"/>
			</g>
		</g>
		<g>
			<path id="SVGID_2_" class="st7" d="M122,116.9c0,0,0.5,34.2,1,43.4c-0.2,38.5,6.2,94.7,24.6,142.3
				c28.3,71.5,139.3,131.6,139.3,131.6s111.6-60.8,139.4-131.6c18.3-46.9,25.1-104.5,23.6-142.6c0.6-10.7,0.4-10.4,0.5-18.4
				c0.2-13.3-0.1-22.2-0.1-24.3c0-0.3,0-0.5,0-0.5c-45.1,4.6-115.2,7.2-163.3-40.9c-52.3,46.6-119.4,45.6-157.3,41.6L122,116.9z"/>
		</g>
	</g>
</g>
</svg>
